<svg width="22" height="22" viewBox="0 0 22 22" fill="none" xmlns="http://www.w3.org/2000/svg">
<path d="M20.5353 5.34807C21.162 4.9564 21.162 4.04374 20.5353 3.65207L15.4221 0.456319C14.756 0.0400391 13.8921 0.518882 13.8921 1.30432V7.69582C13.8921 8.48126 14.756 8.9601 15.4221 8.54382L20.5353 5.34807Z" fill="#828282"/>
<path d="M1.36217 18.3481C0.735499 17.9564 0.7355 17.0437 1.36217 16.6521L6.47537 13.4563C7.14142 13.04 8.00537 13.5189 8.00537 14.3043V20.6958C8.00537 21.4813 7.14142 21.9601 6.47537 21.5438L1.36217 18.3481Z" fill="#828282"/>
<path d="M2.89209 10.3042V10.3042C2.89209 6.99048 5.57838 4.30418 8.89209 4.30418V4.30418H13.8921" stroke="#828282" stroke-width="2" stroke-linecap="round" stroke-linejoin="round"/>
<path d="M17.8921 11.3042V11.3042C17.8921 14.6179 15.2058 17.3042 11.8921 17.3042V17.3042H6.89209" stroke="#828282" stroke-width="2" stroke-linecap="round" stroke-linejoin="round"/>
</svg>
