<svg width="18" height="14" viewBox="0 0 18 14" fill="none" xmlns="http://www.w3.org/2000/svg">
<path d="M7.83267 0.40053C8.49454 -0.0722337 9.41391 0.40089 9.41391 1.21426V12.7858C9.41391 13.5992 8.49454 14.0723 7.83267 13.5995L4.00364 10.8645H2.13916C1.03459 10.8645 0.13916 9.96908 0.13916 8.86451V5.13555C0.13916 4.03098 1.03459 3.13555 2.13916 3.13555H4.00364L7.83267 0.40053Z" fill="#828282"/>
<path d="M11.7277 10.7913C12.6867 9.81503 13.2783 8.47657 13.2783 6.99996C13.2783 5.51713 12.6818 4.17364 11.7156 3.19637" stroke="#828282" stroke-width="1.5" stroke-linecap="round" stroke-linejoin="round"/>
<path d="M13.8796 0.988358C15.4182 2.52689 16.3698 4.65235 16.3698 7.00008C16.3698 9.3478 15.4182 11.4733 13.8796 13.0118" stroke="#828282" stroke-width="1.5" stroke-linecap="round" stroke-linejoin="round"/>
</svg>
