<svg width="24" height="24" viewBox="0 0 24 24" fill="none" xmlns="http://www.w3.org/2000/svg">
<g style="mix-blend-mode:luminosity">
<path d="M6.99219 12.3594C6.99219 12.625 7.09375 12.8516 7.30469 13.0547L13.3984 19.0156C13.5625 19.1875 13.7812 19.2734 14.0312 19.2734C14.5391 19.2734 14.9375 18.8828 14.9375 18.3672C14.9375 18.1172 14.8359 17.8906 14.6641 17.7188L9.17188 12.3594L14.6641 7C14.8359 6.82031 14.9375 6.59375 14.9375 6.34375C14.9375 5.83594 14.5391 5.44531 14.0312 5.44531C13.7812 5.44531 13.5625 5.53125 13.3984 5.70312L7.30469 11.6641C7.09375 11.8672 7 12.0938 6.99219 12.3594Z" fill="#797979"/>
</g>
</svg>
