<svg width="24" height="24" viewBox="0 0 24 24" fill="none" xmlns="http://www.w3.org/2000/svg">
<g style="mix-blend-mode:luminosity">
<path d="M17 12.3594C17 12.0938 16.8984 11.8672 16.6953 11.6641L10.6016 5.70312C10.4297 5.53125 10.2188 5.44531 9.96875 5.44531C9.46094 5.44531 9.05469 5.83594 9.05469 6.34375C9.05469 6.59375 9.15625 6.82031 9.32812 7L14.8281 12.3594L9.32812 17.7188C9.16406 17.8906 9.05469 18.1172 9.05469 18.3672C9.05469 18.8828 9.46094 19.2734 9.96875 19.2734C10.2188 19.2734 10.4297 19.1875 10.6016 19.0156L16.6953 13.0547C16.9062 12.8516 17 12.625 17 12.3594Z" fill="#797979"/>
</g>
</svg>
