<svg width="31" height="24" viewBox="0 0 31 24" fill="none" xmlns="http://www.w3.org/2000/svg">
<g style="mix-blend-mode:luminosity">
<path d="M15.4922 14.4219C15.8906 14.4219 16.2188 14.0938 16.2188 13.7109V5.84375L16.1562 4.67969L16.6406 5.25L17.7422 6.42188C17.8672 6.5625 18.0469 6.63281 18.2266 6.63281C18.5781 6.63281 18.8672 6.375 18.8672 6.00781C18.8672 5.82031 18.7969 5.67969 18.6641 5.54688L16.0391 3.02344C15.8594 2.83594 15.6875 2.77344 15.4922 2.77344C15.3047 2.77344 15.1328 2.83594 14.9531 3.02344L12.3281 5.54688C12.1953 5.67969 12.1172 5.82031 12.1172 6.00781C12.1172 6.375 12.4062 6.63281 12.7578 6.63281C12.9375 6.63281 13.125 6.5625 13.25 6.42188L14.3438 5.25L14.8359 4.67969L14.7734 5.84375V13.7109C14.7734 14.0938 15.1016 14.4219 15.4922 14.4219ZM11 20.6484H19.9922C21.6797 20.6484 22.5547 19.7812 22.5547 18.1172V10.4219C22.5547 8.75781 21.6797 7.89062 19.9922 7.89062H17.875V9.42188H19.8984C20.6172 9.42188 21.0234 9.79688 21.0234 10.5547V17.9844C21.0234 18.7422 20.6172 19.1172 19.8984 19.1172H11.0938C10.3672 19.1172 9.96875 18.7422 9.96875 17.9844V10.5547C9.96875 9.79688 10.3672 9.42188 11.0938 9.42188H13.1328V7.89062H11C9.3125 7.89062 8.4375 8.75781 8.4375 10.4219V18.1172C8.4375 19.7812 9.3125 20.6484 11 20.6484Z" fill="#797979"/>
</g>
</svg>
