<svg width="33" height="24" viewBox="0 0 33 24" fill="none" xmlns="http://www.w3.org/2000/svg">
<g style="mix-blend-mode:luminosity">
<g style="mix-blend-mode:luminosity">
<path d="M10.6016 17.0312H11.9297V18.2109C11.9297 19.875 12.7969 20.7422 14.4922 20.7422H22.3984C24.0859 20.7422 24.9609 19.875 24.9609 18.2109V10.2422C24.9609 8.57812 24.0859 7.71094 22.3984 7.71094H21.0703V6.53125C21.0703 4.86719 20.1953 4 18.5078 4H10.6016C8.91406 4 8.03906 4.85938 8.03906 6.53125V14.4922C8.03906 16.1641 8.91406 17.0312 10.6016 17.0312ZM10.6953 15.5C9.96875 15.5 9.57031 15.125 9.57031 14.3672V6.66406C9.57031 5.90625 9.96875 5.52344 10.6953 5.52344H18.4219C19.1406 5.52344 19.5469 5.90625 19.5469 6.66406V7.71094H14.4922C12.7969 7.71094 11.9297 8.57812 11.9297 10.2422V15.5H10.6953ZM14.5781 19.2109C13.8516 19.2109 13.4609 18.8359 13.4609 18.0781V10.375C13.4609 9.61719 13.8516 9.24219 14.5781 9.24219H22.3047C23.0234 9.24219 23.4297 9.61719 23.4297 10.375V18.0781C23.4297 18.8359 23.0234 19.2109 22.3047 19.2109H14.5781Z" fill="#797979"/>
</g>
</g>
</svg>
