<svg width="30" height="24" viewBox="0 0 30 24" fill="none" xmlns="http://www.w3.org/2000/svg">
<g style="mix-blend-mode:luminosity">
<g style="mix-blend-mode:luminosity">
<path d="M8.46094 12.3594C8.46094 12.8438 8.85938 13.2344 9.33594 13.2344H14.125V18.0234C14.125 18.5 14.5234 18.8984 15 18.8984C15.4766 18.8984 15.875 18.5 15.875 18.0234V13.2344H20.6641C21.1406 13.2344 21.5391 12.8438 21.5391 12.3594C21.5391 11.8828 21.1406 11.4844 20.6641 11.4844H15.875V6.69531C15.875 6.21875 15.4766 5.82031 15 5.82031C14.5234 5.82031 14.125 6.21875 14.125 6.69531V11.4844H9.33594C8.85938 11.4844 8.46094 11.8828 8.46094 12.3594Z" fill="#797979"/>
</g>
</g>
</svg>
