<svg width="35" height="24" viewBox="0 0 35 24" fill="none" xmlns="http://www.w3.org/2000/svg">
<g style="mix-blend-mode:luminosity">
<path d="M10.8047 19.6641H24.1875C25.875 19.6641 26.75 18.7891 26.75 17.125V7.61719C26.75 5.94531 25.875 5.07812 24.1875 5.07812H10.8047C9.11719 5.07812 8.24219 5.94531 8.24219 7.61719V17.125C8.24219 18.7969 9.11719 19.6641 10.8047 19.6641ZM10.8984 18.1328C10.1719 18.1328 9.77344 17.75 9.77344 16.9922V7.74219C9.77344 6.98438 10.1719 6.60938 10.8984 6.60938H14.4531V18.1328H10.8984ZM24.0938 6.60938C24.8125 6.60938 25.2188 6.98438 25.2188 7.74219V16.9922C25.2188 17.75 24.8125 18.1328 24.0938 18.1328H15.9062V6.60938H24.0938ZM12.9219 9.46875C13.1953 9.46875 13.4297 9.23438 13.4297 8.96875C13.4297 8.70312 13.1953 8.47656 12.9219 8.47656H11.3203C11.0391 8.47656 10.8047 8.70312 10.8047 8.96875C10.8047 9.23438 11.0391 9.46875 11.3203 9.46875H12.9219ZM12.9219 11.5625C13.1953 11.5625 13.4297 11.3281 13.4297 11.0625C13.4297 10.7969 13.1953 10.5703 12.9219 10.5703H11.3203C11.0391 10.5703 10.8047 10.7969 10.8047 11.0625C10.8047 11.3281 11.0391 11.5625 11.3203 11.5625H12.9219ZM12.9219 13.6484C13.1953 13.6484 13.4297 13.4219 13.4297 13.1562C13.4297 12.8906 13.1953 12.6641 12.9219 12.6641H11.3203C11.0391 12.6641 10.8047 12.8906 10.8047 13.1562C10.8047 13.4219 11.0391 13.6484 11.3203 13.6484H12.9219Z" fill="#797979"/>
</g>
</svg>
