<svg width="29" height="24" viewBox="0 0 29 24" fill="none" xmlns="http://www.w3.org/2000/svg">
<g style="mix-blend-mode:luminosity" opacity="0.5">
<g style="mix-blend-mode:luminosity">
<path d="M7.52344 12.9141C7.52344 16.7891 10.6328 19.9062 14.5 19.9062C18.3672 19.9062 21.4766 16.7891 21.4766 12.9141C21.4766 12.4531 21.1562 12.125 20.6953 12.125C20.25 12.125 19.9531 12.4531 19.9531 12.9141C19.9531 15.9453 17.5234 18.375 14.5 18.375C11.4766 18.375 9.05469 15.9453 9.05469 12.9141C9.05469 9.86719 11.4609 7.45312 14.4766 7.45312C14.9922 7.45312 15.4688 7.49219 15.8672 7.57812L13.7422 9.6875C13.6016 9.83594 13.5312 10 13.5312 10.2031C13.5312 10.6328 13.8516 10.9609 14.2734 10.9609C14.4922 10.9609 14.6719 10.8906 14.8047 10.75L18.0156 7.51562C18.1797 7.35156 18.2578 7.16406 18.2578 6.95312C18.2578 6.75 18.1719 6.54688 18.0156 6.39062L14.8047 3.13281C14.6719 2.98438 14.4922 2.90625 14.2734 2.90625C13.8516 2.90625 13.5312 3.25 13.5312 3.67188C13.5312 3.875 13.6016 4.05469 13.7344 4.19531L15.625 6.0625C15.2812 5.99219 14.8828 5.95312 14.4766 5.95312C10.6172 5.95312 7.52344 9.04688 7.52344 12.9141Z" fill="#797979"/>
</g>
</g>
</svg>
