<svg width="31" height="24" viewBox="0 0 31 24" fill="none" xmlns="http://www.w3.org/2000/svg">
<g style="mix-blend-mode:luminosity">
<path d="M8.89844 13.9219C8.89844 16.7656 10.4609 17.8828 14.9453 20.3359C15.1484 20.4453 15.3594 20.5 15.4922 20.5C15.6328 20.5 15.8438 20.4453 16.0469 20.3359C20.5312 17.8906 22.0938 16.7656 22.0938 13.9219V8.00781C22.0938 7.08594 21.7344 6.75781 20.9609 6.42969C20.0938 6.0625 17.1641 5.03125 16.3047 4.75C16.0547 4.66406 15.7578 4.60938 15.4922 4.60938C15.2344 4.60938 14.9375 4.67969 14.6797 4.75C13.8281 4.98438 10.8984 6.07031 10.0312 6.42969C9.25781 6.75 8.89844 7.08594 8.89844 8.00781V13.9219ZM15.6328 18.8359V6.09375C15.7031 6.10156 15.7812 6.125 15.8984 6.16406C16.9531 6.57812 19.1797 7.36719 20.3516 7.78906C20.5703 7.86719 20.625 7.98438 20.625 8.25781V13.625C20.625 15.9297 19.4766 16.5547 15.9453 18.6797C15.8125 18.7656 15.7188 18.8125 15.6328 18.8359Z" fill="#797979"/>
</g>
</svg>
